<?xml version="1.0" encoding="UTF-8" standalone="no"?>
<!DOCTYPE svg PUBLIC "-//W3C//DTD SVG 1.1//EN"
 "http://www.w3.org/Graphics/SVG/1.1/DTD/svg11.dtd">
<!-- Generated by graphviz version 11.0.0 (20240428.1522)
 -->
<!-- Title: my_graph Pages: 1 -->
<svg width="773pt" height="144pt"
 viewBox="0.00 0.00 773.00 144.00" xmlns="http://www.w3.org/2000/svg" xmlns:xlink="http://www.w3.org/1999/xlink">
<g id="graph0" class="graph" transform="scale(1 1) rotate(0) translate(4 140)">
<title>my_graph</title>
<polygon fill="white" stroke="none" points="-4,4 -4,-140 769,-140 769,4 -4,4"/>
<!-- start -->
<g id="node1" class="node">
<title>start</title>
<ellipse fill="#9aff9a" stroke="black" cx="18" cy="-37" rx="18" ry="18"/>
</g>
<!-- node_0 -->
<g id="node10" class="node">
<title>node_0</title>
<polygon fill="orange" stroke="black" points="99,-55 72,-37 99,-19 126,-37 99,-55"/>
<text text-anchor="middle" x="99" y="-31.57" font-family="Times New Roman,serif" font-size="14.00">N</text>
</g>
<!-- start&#45;&gt;node_0 -->
<g id="edge11" class="edge">
<title>start&#45;&gt;node_0</title>
<path fill="none" stroke="black" d="M36.14,-37C43.11,-37 51.47,-37 59.75,-37"/>
<polygon fill="black" stroke="black" points="59.75,-40.5 69.75,-37 59.75,-33.5 59.75,-40.5"/>
</g>
<!-- end -->
<g id="node2" class="node">
<title>end</title>
<ellipse fill="orangered" stroke="black" cx="743" cy="-34" rx="18" ry="18"/>
<ellipse fill="none" stroke="black" cx="743" cy="-34" rx="22" ry="22"/>
</g>
<!-- node_3 -->
<g id="node3" class="node">
<title>node_3</title>
<path fill="lightblue" stroke="black" d="M400,-136C400,-136 335.25,-136 335.25,-136 329.25,-136 323.25,-130 323.25,-124 323.25,-124 323.25,-112 323.25,-112 323.25,-106 329.25,-100 335.25,-100 335.25,-100 400,-100 400,-100 406,-100 412,-106 412,-112 412,-112 412,-124 412,-124 412,-130 406,-136 400,-136"/>
<text text-anchor="middle" x="367.62" y="-112.58" font-family="Times New Roman,serif" font-size="14.00">SimpleTask1</text>
</g>
<!-- node_4 -->
<g id="node4" class="node">
<title>node_4</title>
<path fill="lightblue" stroke="black" d="M491,-136C491,-136 461,-136 461,-136 455,-136 449,-130 449,-124 449,-124 449,-112 449,-112 449,-106 455,-100 461,-100 461,-100 491,-100 491,-100 497,-100 503,-106 503,-112 503,-112 503,-124 503,-124 503,-130 497,-136 491,-136"/>
<text text-anchor="middle" x="476" y="-112.58" font-family="Times New Roman,serif" font-size="14.00">Task1</text>
</g>
<!-- node_3&#45;&gt;node_4 -->
<g id="edge1" class="edge">
<title>node_3&#45;&gt;node_4</title>
<path fill="none" stroke="black" d="M412.2,-118C420.53,-118 429.18,-118 437.3,-118"/>
<polygon fill="black" stroke="black" points="437.21,-121.5 447.21,-118 437.21,-114.5 437.21,-121.5"/>
</g>
<!-- node_8 -->
<g id="node8" class="node">
<title>node_8</title>
<polygon fill="yellowgreen" stroke="black" points="567,-82 540,-64 567,-46 594,-64 567,-82"/>
<text text-anchor="middle" x="567" y="-58.58" font-family="Times New Roman,serif" font-size="14.00">+</text>
</g>
<!-- node_4&#45;&gt;node_8 -->
<g id="edge4" class="edge">
<title>node_4&#45;&gt;node_8</title>
<path fill="none" stroke="black" d="M503.22,-102.09C515.59,-94.58 530.25,-85.69 542.29,-78.39"/>
<polygon fill="black" stroke="black" points="544.04,-81.42 550.78,-73.24 540.41,-75.43 544.04,-81.42"/>
</g>
<!-- node_6 -->
<g id="node5" class="node">
<title>node_6</title>
<path fill="lightblue" stroke="black" d="M382.62,-82C382.62,-82 352.62,-82 352.62,-82 346.62,-82 340.62,-76 340.62,-70 340.62,-70 340.62,-58 340.62,-58 340.62,-52 346.62,-46 352.62,-46 352.62,-46 382.62,-46 382.62,-46 388.62,-46 394.62,-52 394.62,-58 394.62,-58 394.62,-70 394.62,-70 394.62,-76 388.62,-82 382.62,-82"/>
<text text-anchor="middle" x="367.62" y="-58.58" font-family="Times New Roman,serif" font-size="14.00">Task</text>
</g>
<!-- node_7 -->
<g id="node6" class="node">
<title>node_7</title>
<path fill="lightblue" stroke="black" d="M491,-82C491,-82 461,-82 461,-82 455,-82 449,-76 449,-70 449,-70 449,-58 449,-58 449,-52 455,-46 461,-46 461,-46 491,-46 491,-46 497,-46 503,-52 503,-58 503,-58 503,-70 503,-70 503,-76 497,-82 491,-82"/>
<text text-anchor="middle" x="476" y="-58.58" font-family="Times New Roman,serif" font-size="14.00">Task3</text>
</g>
<!-- node_6&#45;&gt;node_7 -->
<g id="edge2" class="edge">
<title>node_6&#45;&gt;node_7</title>
<path fill="none" stroke="black" d="M394.92,-64C407.71,-64 423.3,-64 437.33,-64"/>
<polygon fill="black" stroke="black" points="437.13,-67.5 447.13,-64 437.13,-60.5 437.13,-67.5"/>
</g>
<!-- node_7&#45;&gt;node_8 -->
<g id="edge6" class="edge">
<title>node_7&#45;&gt;node_8</title>
<path fill="none" stroke="black" d="M503.22,-64C510.96,-64 519.59,-64 527.91,-64"/>
<polygon fill="black" stroke="black" points="527.84,-67.5 537.84,-64 527.84,-60.5 527.84,-67.5"/>
</g>
<!-- node_1 -->
<g id="node7" class="node">
<title>node_1</title>
<polygon fill="yellowgreen" stroke="black" points="206.25,-82 179.25,-64 206.25,-46 233.25,-64 206.25,-82"/>
<text text-anchor="middle" x="206.25" y="-58.58" font-family="Times New Roman,serif" font-size="14.00">+</text>
</g>
<!-- node_1&#45;&gt;node_3 -->
<g id="edge3" class="edge">
<title>node_1&#45;&gt;node_3</title>
<path fill="none" stroke="black" d="M224.91,-69.99C245.94,-77.11 282.04,-89.34 312.54,-99.67"/>
<polygon fill="black" stroke="black" points="311.03,-102.86 321.63,-102.75 313.28,-96.23 311.03,-102.86"/>
</g>
<!-- node_1&#45;&gt;node_6 -->
<g id="edge5" class="edge">
<title>node_1&#45;&gt;node_6</title>
<path fill="none" stroke="black" d="M233.93,-64C259.86,-64 299.51,-64 328.71,-64"/>
<polygon fill="black" stroke="black" points="328.61,-67.5 338.61,-64 328.61,-60.5 328.61,-67.5"/>
</g>
<!-- node_10 -->
<g id="node11" class="node">
<title>node_10</title>
<polygon fill="orange" stroke="black" points="658,-52 631,-34 658,-16 685,-34 658,-52"/>
<text text-anchor="middle" x="658" y="-28.57" font-family="Times New Roman,serif" font-size="14.00">N</text>
</g>
<!-- node_8&#45;&gt;node_10 -->
<g id="edge8" class="edge">
<title>node_8&#45;&gt;node_10</title>
<path fill="none" stroke="black" d="M585.58,-58.07C597.82,-53.95 614.39,-48.36 628.5,-43.61"/>
<polygon fill="black" stroke="black" points="629.36,-47.01 637.71,-40.5 627.12,-40.38 629.36,-47.01"/>
</g>
<!-- node_9 -->
<g id="node9" class="node">
<title>node_9</title>
<path fill="lightblue" stroke="black" d="M293.25,-36C293.25,-36 263.25,-36 263.25,-36 257.25,-36 251.25,-30 251.25,-24 251.25,-24 251.25,-12 251.25,-12 251.25,-6 257.25,0 263.25,0 263.25,0 293.25,0 293.25,0 299.25,0 305.25,-6 305.25,-12 305.25,-12 305.25,-24 305.25,-24 305.25,-30 299.25,-36 293.25,-36"/>
<text text-anchor="middle" x="278.25" y="-12.57" font-family="Times New Roman,serif" font-size="14.00">Task9</text>
</g>
<!-- node_9&#45;&gt;node_10 -->
<g id="edge10" class="edge">
<title>node_9&#45;&gt;node_10</title>
<path fill="none" stroke="black" d="M305.66,-18C335.76,-18 386.42,-18 430,-18 430,-18 430,-18 568,-18 588.03,-18 610.19,-21.97 627.39,-25.96"/>
<polygon fill="black" stroke="black" points="626.41,-29.32 636.95,-28.31 628.08,-22.52 626.41,-29.32"/>
</g>
<!-- node_0&#45;&gt;node_1 -->
<g id="edge7" class="edge">
<title>node_0&#45;&gt;node_1</title>
<path fill="none" stroke="black" d="M119.3,-41.95C134.88,-45.95 157.08,-51.64 175.01,-56.24"/>
<polygon fill="black" stroke="black" points="174.05,-59.61 184.6,-58.7 175.79,-52.83 174.05,-59.61"/>
<text text-anchor="middle" x="152.62" y="-54.45" font-family="Times New Roman,serif" font-size="14.00">0.5</text>
</g>
<!-- node_0&#45;&gt;node_9 -->
<g id="edge9" class="edge">
<title>node_0&#45;&gt;node_9</title>
<path fill="none" stroke="black" d="M120.07,-32.48C127.55,-30.94 136.13,-29.33 144,-28.25 176.14,-23.83 212.92,-21.18 239.68,-19.69"/>
<polygon fill="black" stroke="black" points="239.54,-23.2 249.35,-19.18 239.17,-16.21 239.54,-23.2"/>
<text text-anchor="middle" x="152.62" y="-30.45" font-family="Times New Roman,serif" font-size="14.00">0.5</text>
</g>
<!-- node_10&#45;&gt;end -->
<g id="edge12" class="edge">
<title>node_10&#45;&gt;end</title>
<path fill="none" stroke="black" d="M685.72,-34C693.21,-34 701.44,-34 709.23,-34"/>
<polygon fill="black" stroke="black" points="709.07,-37.5 719.07,-34 709.07,-30.5 709.07,-37.5"/>
</g>
</g>
</svg>
